<?xml version="1.0" encoding="iso-8859-1"?>
<!-- Uploaded to: SVG Repo, www.svgrepo.com, Generator: SVG Repo Mixer Tools -->
<!DOCTYPE svg PUBLIC "-//W3C//DTD SVG 1.1//EN" "http://www.w3.org/Graphics/SVG/1.1/DTD/svg11.dtd">
<svg fill="#2a2a2a" version="1.1" id="Capa_1" xmlns="http://www.w3.org/2000/svg" xmlns:xlink="http://www.w3.org/1999/xlink"
	 width="800px" height="800px" viewBox="0 0 380.731 380.73"
	 xml:space="preserve">
<g>
	<g>
		<path d="M374.1,181.417c-3.416-5.472-7.854-10.294-12.78-14.482c-6.901-5.804-14.687-10.515-22.866-14.558
			c8.296-8.627,17.684-17.98,17.684-17.98l-34.82-9.376c-8.819-27.519-34.59-47.445-65.042-47.445
			c-34.902,0-63.653,26.2-67.754,59.999c-0.012,0-0.029,0.023-0.029,0.023c-16.533-2.393-32.039-28.245-47.944-73.383
			c-28.96,34.455-32.823,71.931-27.461,94.065c-6.326,1.342-12.763,2.934-19.118,5.135c-3.329,1.156-6.675,2.428-9.935,3.916
			c-8.29-1.818-16.679-4.177-24.567-6.791c1.655-1.249,3.306-2.562,4.903-3.619c2.463-1.581,4.734-3.103,6.849-4.282
			c2.121-1.179,3.951-2.283,5.537-3.096c3.114-1.65,4.996-2.533,4.996-2.533s-2.097,0-5.676,0.546
			c-1.76,0.302-3.939,0.645-6.39,1.313c-2.452,0.662-5.223,1.4-8.127,2.579c-2.922,1.156-6.088,2.498-9.266,4.305
			c-0.737,0.418-1.464,1.052-2.19,1.499c-6.721-2.556-12.693-5.188-17.225-7.651c2.237,4.99,4.885,9.875,7.686,14.709
			c-2.348,2.161-4.619,4.508-6.629,7.198c-2.632,3.509-4.915,7.436-6.559,11.648c-0.436,1.011-0.784,2.167-1.162,3.294l-0.534,1.667
			l-0.349,1.464l-0.343,1.464l-0.215,0.976l-0.146,0.808c-0.215,1.069-0.366,2.155-0.511,3.236
			c-0.488,4.322-0.488,8.714,0.122,12.896c1.19,8.4,4.874,15.709,9.173,20.693c1.068,1.289,2.167,2.428,3.271,3.451
			c-5.699-2.882-9.481-6.355-11.729-9.04c-1.074-1.394-1.882-2.51-2.323-3.3c-0.488-0.801-0.75-1.208-0.75-1.208
			s0.145,0.453,0.395,1.348c0.238,0.918,0.749,2.208,1.534,3.88c1.58,3.301,4.856,7.913,10.41,12.224
			c5.531,4.368,13.147,8.249,22.139,11.642c9.045,3.207,19.433,6.158,30.819,8.389c11.41,2.324,23.626,4.462,36.692,6.367
			c13.524,1.72,27.443,2.626,41.961,3.01c14.477,0.359,29.447,0.29,44.639-0.384c15.191-0.593,30.633-1.952,46.062-3.915
			c15.383-2.057,30.812-4.566,45.777-8.842c7.482-2.127,14.872-4.59,22.063-7.669c7.158-3.091,14.164-6.739,20.565-11.724
			c3.184-2.475,6.158-5.355,8.737-8.679c1.186-1.417,2.847-4.044,3.463-5.286c1.115-1.93,1.975-4.043,2.579-6.263
			c1.267-4.462,1.161-9.364-0.047-13.594c-1.22-4.252-3.3-7.843-5.635-10.898c-4.706-6.088-10.306-10.265-15.848-13.792
			c-4.3-2.707-8.621-4.862-12.874-6.826c0.244-0.738,0.488-1.522,0.686-2.213c0.186-0.668,2.138-2.951,4.949-6.019
			c8.842,3.852,17.138,8.447,24.167,14.082c8.97,7.059,15.813,16.115,17.185,25.944c1.487,9.83-1.998,19.496-7.506,26.852
			c-5.508,7.436-12.293,13.164-18.602,17.672c-6.391,4.484-12.362,7.924-17.382,10.526c-5.054,2.603-9.12,4.485-11.933,5.681
			c-2.776,1.221-4.311,1.778-4.311,1.778s1.604-0.337,4.532-1.196c2.951-0.871,7.272-2.162,12.617-4.265
			c5.321-2.114,11.782-4.88,18.753-8.993c6.925-4.124,14.663-9.364,21.332-17.288c3.322-3.95,6.344-8.598,8.389-14.013
			c2.068-5.414,2.998-11.525,2.323-17.799C379.898,193.053,377.54,186.878,374.1,181.417z M282.963,112.396
			c10.363,0,18.752,8.4,18.752,18.752c0,10.375-8.389,18.764-18.752,18.764c-10.341,0-18.741-8.4-18.741-18.764
			C264.222,120.797,272.623,112.396,282.963,112.396z M58.787,240.33c-4.293-0.86-8.22-1.906-11.799-3.068
			c-2.301-2.613-5.275-6.494-7.738-11.49c-2.434-5.055-4.27-11.166-4.531-17.857c-0.145-3.347,0.047-6.82,0.61-10.353
			c0.116-0.883,0.273-1.754,0.436-2.655l0.25-1.15l0.372-1.464l0.343-1.464l0.372-1.214c0.25-0.784,0.465-1.568,0.808-2.417
			c1.249-3.317,2.853-6.518,4.805-9.492c1.034-1.592,2.323-2.963,3.526-4.427c3.683,5.606,7.61,11.026,11.788,16.312
			c-3.341,5.868-5.153,12.536-5.118,18.8c0,3.404,0.54,6.645,1.371,9.654c0.807,2.998,1.975,5.752,3.34,8.191
			c2.742,4.914,6.048,8.818,9.464,11.607c2.922,2.51,5.85,4.205,8.528,5.298C69.626,242.375,63.928,241.515,58.787,240.33z
			 M89.088,244.791c-1.458-0.162-2.853-0.325-4.293-0.5c-0.25-0.068-0.488-0.139-0.761-0.243c-1.44-0.488-3.485-1.487-5.699-3.161
			c-2.19-1.73-4.63-4.078-6.832-7.168c-2.185-3.102-4.316-6.809-5.647-11.072c-1.348-4.265-1.975-8.971-1.417-13.688
			c0.395-2.869,1.383-5.693,2.678-8.424c3.486,3.951,7.018,7.855,10.625,11.538c-0.563,2.23-0.93,4.485-0.883,6.716
			c0.122,4.879,1.807,9.388,4.188,12.885c2.371,3.543,5.345,6.182,8.319,8.215c5.711,3.752,11.311,5.438,15.987,6.459
			C99.737,245.837,94.276,245.35,89.088,244.791z M92.115,236.229c-2.394-2.057-4.653-4.555-6.187-7.518
			c-1.563-2.963-2.37-6.367-2.097-9.818c0.023-0.243,0.146-0.487,0.168-0.731c11.589,11.235,23.139,21.054,33.299,28.814
			c-2.533-0.487-6.141-1.208-10.503-2.73C102.322,242.723,96.919,240.354,92.115,236.229z M302.715,236.496
			c6.437-8.75,11.618-18.451,15.324-28.885c0.662,0.79,1.371,1.58,1.848,2.429c1.383,2.486,1.824,5.17,1.58,7.726
			c-0.279,2.568-1.174,4.974-2.254,7.018c-2.068,3.881-4.346,6.717-6.042,8.668C309.802,234.613,306.247,235.543,302.715,236.496z
			 M344.182,196.341c1.51,2.254,2.603,4.625,3.09,6.901c0.465,2.289,0.372,4.463-0.418,6.6c-0.349,1.069-0.883,2.162-1.58,3.207
			l-0.686,1.115c-0.232,0.303-0.383,0.488-0.581,0.732l-0.511,0.709l-0.697,0.789c-1.859,2.127-4.148,4.078-6.657,5.938
			c-5.043,3.684-11.131,6.682-17.567,9.191c-0.977,0.371-1.999,0.731-2.975,1.092c1.754-1.534,3.881-3.51,5.972-6.32
			c1.511-2.033,2.998-4.555,3.881-7.738c0.883-3.148,0.755-7.088-0.731-10.736c-1.046-2.556-2.673-4.799-4.509-6.912
			c2.011-7.059,3.312-14.385,3.904-21.942c2.707,1.644,5.368,3.393,7.947,5.339C336.665,187.767,341.08,191.816,344.182,196.341z"/>
		<path d="M18.191,252.832c8.226,7.133,18.084,12.617,28.506,17.113c10.434,4.543,21.547,7.924,32.864,10.829
			c11.34,2.963,23.057,5.089,34.81,6.657c11.758,1.487,23.586,2.475,35.204,2.812c11.625,0.348,23.058,0.104,34.066-0.523
			c22.058-1.243,42.402-4.299,59.633-7.819c17.195-3.532,31.254-7.587,40.99-10.759c4.846-1.533,8.621-2.975,11.166-3.928
			c2.556-0.976,3.903-1.533,3.903-1.533s-5.763,0.871-15.848,2.161c-10.062,1.231-24.423,2.951-41.642,4.275
			c-17.195,1.349-37.255,2.487-58.656,2.464c-10.707,0-21.728-0.291-32.91-0.906c-11.171-0.697-22.471-1.662-33.694-3.184
			c-11.218-1.406-22.354-3.369-33.183-5.81c-2.725-0.558-5.386-1.243-8.063-1.929l-3.997-1l-1.905-0.464l-2.021-0.558
			c-2.76-0.756-5.188-1.511-7.686-2.301c-2.533-0.813-5.02-1.627-7.459-2.51c-9.708-3.578-18.752-7.773-26.09-13.105
			c-7.389-5.252-12.926-11.712-15.598-18.753c-2.725-7.041-2.655-14.534-1.272-21.019c1.436-6.483,3.759-12.089,6.065-16.51
			c2.306-4.415,4.427-7.808,5.983-10.021c1.534-2.248,2.44-3.393,2.44-3.393s-1.191,0.883-3.189,2.748
			c-1.976,1.906-4.927,4.717-8.093,8.842c-3.16,4.107-6.779,9.435-9.435,16.487c-2.649,6.948-4.339,16.034-1.899,25.735
			C3.511,236.623,9.971,245.791,18.191,252.832z"/>
		<path d="M334.736,266.402c-6.553,3.044-14.059,6.135-22.272,9.388c-8.227,3.229-17.312,6.251-26.967,9.271
			c-9.645,2.997-19.938,5.658-30.674,7.993c-10.701,2.348-21.89,4.346-33.275,5.856c-11.387,1.557-23.145,2.532-34.647,3.021
			c-11.828,0.465-23.423,0.512-34.966,0.07c-11.479-0.418-22.773-1.336-33.625-2.684c-10.846-1.337-21.285-3.161-31.086-5.287
			c-9.783-2.173-18.915-4.822-27.234-7.529c-8.318-2.788-15.801-5.809-22.331-8.748c-6.506-3.01-12.042-5.949-16.504-8.563
			c-8.923-5.229-13.501-9.155-13.501-9.155s3.602,4.88,11.752,11.642c4.049,3.393,9.196,7.25,15.482,11.165
			c6.222,3.975,13.623,7.936,21.913,11.678c8.295,3.834,17.596,7.238,27.606,10.259c9.992,3.056,20.769,5.565,31.992,7.448
			c11.241,1.894,22.958,3.16,34.902,3.846c11.874,0.568,24.12,0.615,36.11,0c12.293-0.547,24.26-1.895,36.088-3.776
			c11.805-1.929,23.308-4.415,34.252-7.413c10.968-2.998,21.355-6.529,31.068-10.213c9.725-3.66,18.625-7.818,26.77-11.805
			c8.109-3.973,15.29-8.168,21.564-11.955c6.273-3.787,11.514-7.459,15.755-10.516c8.505-6.191,12.851-10.34,12.851-10.34
			s-5.043,3.242-14.245,8.074C346.936,260.604,341.254,263.334,334.736,266.402z"/>
		<path d="M284.276,140.525c5.182,0,9.365-4.188,9.365-9.376c0-5.176-4.195-9.376-9.365-9.376h-0.023
			c0.384,0.738,0.686,1.533,0.686,2.428c0,2.87-2.323,5.211-5.193,5.211c-1.673,0-3.091-0.842-4.031-2.045
			c-0.512,1.167-0.813,2.452-0.813,3.793C274.888,136.337,279.083,140.525,284.276,140.525z"/>
	</g>
</g>
</svg>